<?xml version="1.0" encoding="utf-8"?>
<!-- Generator: Adobe Illustrator 16.0.0, SVG Export Plug-In . SVG Version: 6.00 Build 0)  -->
<!DOCTYPE svg PUBLIC "-//W3C//DTD SVG 1.1//EN" "http://www.w3.org/Graphics/SVG/1.1/DTD/svg11.dtd">
<svg version="1.1" id="Layer_3" xmlns="http://www.w3.org/2000/svg" xmlns:xlink="http://www.w3.org/1999/xlink" x="0px" y="0px"
	 width="512px" height="512px" viewBox="0 0 512 512" enable-background="new 0 0 512 512" xml:space="preserve">
<g>
	<g>
		<path fill="#A00B0B" d="M251.309,18.053c-91.693,0-166.29,74.597-166.29,166.288c0,113.792,148.812,280.847,155.148,287.904
			c5.952,6.627,16.342,6.617,22.282,0c6.336-7.057,155.148-174.111,155.148-287.904C417.598,92.65,343,18.053,251.309,18.053z"/>
	</g>
</g>
<path display="none" fill="#FFFFFF" d="M357.957,95.084H144.77c-1.961,0-3.552,1.59-3.552,3.552V205.23
	c0,1.96,1.591,3.555,3.552,3.555h213.187c1.96,0,3.554-1.595,3.554-3.555V98.636C361.511,96.674,359.917,95.084,357.957,95.084z
	 M354.405,201.677H148.323v-99.489h206.083L354.405,201.677L354.405,201.677z"/>
<path display="none" fill="#FFFFFF" d="M301.109,279.846c1.959,0,3.551-1.592,3.551-3.553v-56.85c0-1.961-1.592-3.556-3.551-3.556
	H201.62c-1.959,0-3.551,1.595-3.551,3.556v56.85c0,1.961,1.591,3.553,3.551,3.553h39.083v14.213h-17.765v7.106h56.848v-7.106
	h-17.765v-14.213H301.109z M205.173,222.996h92.38v49.742h-92.38V222.996z M254.917,294.059h-7.106v-14.213h7.106V294.059z"/>
<path display="none" fill="#FFFFFF" d="M251.364,187.463c14.47,0,26.423-10.872,28.181-24.871H294v-7.107h-14.455
	c-1.758-13.998-13.711-24.872-28.181-24.872c-14.469,0-26.421,10.874-28.179,24.872h-14.458v7.107h14.458
	C224.943,176.592,236.895,187.463,251.364,187.463z M251.364,180.359c-10.542,0-19.296-7.7-20.998-17.767h41.995
	C270.661,172.659,261.907,180.359,251.364,180.359z M251.364,137.721c10.543,0,19.297,7.699,20.997,17.765h-41.995
	C232.067,145.42,240.822,137.721,251.364,137.721z"/>
<path display="none" fill="#FFFFFF" d="M336.643,130.614c5.873,0,10.656-4.782,10.656-10.658c0-5.878-4.783-10.661-10.656-10.661
	c-5.883,0-10.666,4.782-10.666,10.661C325.977,125.832,330.76,130.614,336.643,130.614z M336.643,116.4
	c1.952,0,3.551,1.597,3.551,3.556c0,1.957-1.599,3.553-3.551,3.553c-1.963,0-3.554-1.596-3.554-3.553
	C333.089,117.997,334.68,116.4,336.643,116.4z"/>
<path display="none" fill="#FFFFFF" d="M166.089,130.614c5.876,0,10.659-4.782,10.659-10.658c0-5.878-4.783-10.661-10.659-10.661
	c-5.878,0-10.66,4.782-10.66,10.661C155.43,125.832,160.211,130.614,166.089,130.614z M166.089,116.4
	c1.958,0,3.554,1.597,3.554,3.556c0,1.957-1.596,3.553-3.554,3.553s-3.554-1.596-3.554-3.553
	C162.536,117.997,164.131,116.4,166.089,116.4z"/>
<path display="none" fill="#FFFFFF" d="M166.089,159.039c5.876,0,10.659-4.782,10.659-10.66s-4.783-10.658-10.659-10.658
	c-5.878,0-10.66,4.781-10.66,10.658S160.211,159.039,166.089,159.039z M166.089,144.827c1.958,0,3.554,1.594,3.554,3.552
	c0,1.959-1.596,3.554-3.554,3.554s-3.554-1.595-3.554-3.554C162.536,146.421,164.131,144.827,166.089,144.827z"/>
<path display="none" fill="#FFFFFF" d="M190.961,144.827c5.877,0,10.659-4.782,10.659-10.66c0-5.877-4.781-10.659-10.659-10.659
	c-5.877,0-10.66,4.782-10.66,10.659C180.302,140.045,185.084,144.827,190.961,144.827z M190.961,130.614
	c1.958,0,3.553,1.596,3.553,3.554s-1.595,3.554-3.553,3.554s-3.553-1.596-3.553-3.554S189.003,130.614,190.961,130.614z"/>
<path display="none" fill="#FFFFFF" d="M283.343,230.101h7.104v7.105h-7.104V230.101z"/>
<path display="none" fill="#FFFFFF" d="M283.343,244.314h7.104v7.105h-7.104V244.314z"/>
<path display="none" fill="#FFFFFF" d="M283.343,258.527h7.104v7.105h-7.104V258.527z"/>
<path display="none" fill="#FFFFFF" d="M272.684,230.101h-56.85c-1.961,0-3.553,1.594-3.553,3.552v28.424
	c0,1.964,1.592,3.557,3.553,3.557h56.85c1.961,0,3.555-1.593,3.555-3.557v-28.424C276.236,231.695,274.645,230.101,272.684,230.101z
	 M269.131,258.527h-49.745v-21.321h49.745V258.527z"/>
<path display="none" fill="#FFFFFF" d="M141.218,308.271h220.293v7.104H141.218V308.271z"/>
<path display="none" fill="#FFFFFF" d="M357.957,258.527h-42.639c-1.961,0-3.551,1.592-3.551,3.55v35.532
	c0,1.963,1.59,3.556,3.551,3.556h42.639c1.96,0,3.554-1.593,3.554-3.556v-35.532C361.511,260.119,359.917,258.527,357.957,258.527z
	 M354.405,265.634v7.104h-35.532v-7.104H354.405z M318.873,294.059v-14.213h35.532v14.213H318.873z"/>
<path display="none" fill="#FFFFFF" d="M144.77,301.165h42.639c1.961,0,3.553-1.593,3.553-3.556v-35.532
	c0-1.958-1.592-3.55-3.553-3.55H144.77c-1.961,0-3.552,1.592-3.552,3.55v35.532C141.218,299.572,142.809,301.165,144.77,301.165z
	 M148.323,294.059v-14.213h35.533v14.213H148.323z M183.856,265.634v7.104h-35.533v-7.104H183.856z"/>
<g id="Solid" display="none">
	<path display="inline" fill="#FFFFFF" d="M398.299,205.972v-24.383h-63.543c-8.849-24.989-28.506-44.648-53.496-53.496V64.551
		h-24.384v19.506h-9.753V64.551h-24.382v63.542c-24.99,8.848-44.648,28.507-53.497,53.496h-63.542v24.383h19.506v9.754h-19.506
		v24.383h63.542c8.848,24.989,28.506,44.647,53.497,53.497v63.541h24.382v-19.506h9.753v19.506h24.384v-63.541
		c24.99-8.85,44.647-28.508,53.496-53.497h63.543v-24.383h-19.508v-9.754H398.299L398.299,205.972z M164.222,215.726h-19.507v-9.754
		h19.507V215.726z M189.931,223.558l-0.161-0.615c-0.772-3.984-1.163-8.033-1.165-12.093c0-4.215,0.425-8.418,1.268-12.548
		l9.553,1.951c-1.4,6.872-1.432,13.954-0.092,20.837l-4.877,0.977L189.931,223.558z M216.582,263.395
		c-6.901-4.641-12.822-10.592-17.425-17.517l8.124-5.404c3.894,5.867,8.905,10.907,14.747,14.834L216.582,263.395z M207.511,180.932
		l-8.095-5.448c4.636-6.902,10.584-12.827,17.507-17.433l5.408,8.114C216.468,170.065,211.432,175.083,207.511,180.932z
		 M247.123,103.564h9.753v19.506h-9.753V103.564z M239.906,148.619c8.125-1.587,16.486-1.563,24.601,0.074l-1.948,9.563
		c-6.767-1.36-13.729-1.401-20.512-0.122l-0.736,0.131l-0.604-4.875l-1.434-4.609L239.906,148.619z M256.876,318.135h-9.753v-19.508
		h9.753V318.135z M252,274.244c-4.232,0-8.455-0.428-12.601-1.277l1.951-9.553c6.9,1.4,14.009,1.428,20.919,0.084l2.06,9.529
		C260.268,273.83,256.139,274.238,252,274.244z M252,240.109c-16.16,0-29.259-13.1-29.259-29.26c0-16.16,13.1-29.26,29.259-29.26
		c16.16,0,29.26,13.1,29.26,29.26C281.26,227.009,268.16,240.109,252,240.109z M287.32,158.235
		c6.914,4.628,12.846,10.575,17.453,17.503l-8.114,5.407c-3.905-5.855-8.927-10.888-14.776-14.805L287.32,158.235z M287.18,263.57
		l-5.433-8.09c5.853-3.913,10.878-8.94,14.786-14.796l8.135,5.428c-4.622,6.919-10.564,12.855-17.488,17.472V263.57z
		 M314.167,223.289l-9.563-1.951c0.692-3.445,1.041-6.951,1.039-10.465c0.004-3.445-0.322-6.881-0.975-10.264l9.553-1.951
		l0.045,0.233c1.563,8.069,1.533,16.365-0.088,24.423L314.167,223.289z M359.285,215.726h-19.508v-9.754h19.508V215.726z"/>
</g>
<g display="none">
	<path display="inline" fill="#FDFFFE" d="M35.905,366.939V256.45h9.012l-21.286-51.841h-47.328v6.48h42.075l15.966,38.88h-198.04
		l15.967-38.88h42.076v-6.48h-47.329l-21.287,51.841h9.011v110.49c-8.489,1.506-14.9,8.049-14.9,15.87v3.24H50.807v-3.24
		C50.807,374.988,44.395,368.445,35.905,366.939L35.905,366.939z M28.455,256.45v110.162h-7.45V272.65
		c0-5.358-5.014-9.721-11.177-9.721h-59.603c-6.162,0-11.176,4.361-11.176,9.721v93.962h-7.451V272.65
		c0-5.358-5.014-9.721-11.175-9.721h-59.604c-6.161,0-11.175,4.361-11.175,9.721v93.962h-7.452V256.45H28.455z M-1.347,340.691
		H-38.6v-6.48h37.253V340.691z M-38.6,347.17h37.253v6.48H-38.6V347.17z M-38.6,360.131h37.253v6.48H-38.6V360.131z M-46.051,327.73
		v38.881H-53.5V321.25h67.054v45.361h-7.45V327.73H-46.051z M13.554,288.85H-53.5V272.65c0-1.789,1.669-3.239,3.726-3.239H9.828
		c2.056,0,3.726,1.45,3.726,3.239V288.85z M-53.5,295.33h67.054v19.438H-53.5V295.33z M-90.752,340.691h-37.252v-6.48h37.252
		V340.691z M-128.005,347.17h37.252v6.48h-37.252V347.17z M-128.005,360.131h37.252v6.48h-37.252V360.131z M-135.455,327.73v38.881
		h-7.45V321.25h67.054v45.361h-7.451V327.73H-135.455z M-75.851,288.85h-67.054V272.65c0-1.789,1.669-3.239,3.725-3.239h59.604
		c2.056,0,3.726,1.45,3.726,3.239L-75.851,288.85L-75.851,288.85z M-142.905,295.33h67.054v19.438h-67.054V295.33z M-172.07,379.572
		c1.538-3.771,5.681-6.482,10.539-6.482H32.18c4.857,0,8.999,2.711,10.539,6.482H-172.07z"/>
	<path display="inline" fill="#FDFFFE" d="M-46.051,275.889h7.451v6.481h-7.451V275.889z"/>
	<path display="inline" fill="#FDFFFE" d="M-31.148,275.889h7.451v6.481h-7.451V275.889z"/>
	<path display="inline" fill="#FDFFFE" d="M-1.347,301.811h7.45v6.479h-7.45V301.811z"/>
	<path display="inline" fill="#FDFFFE" d="M-16.248,301.811h7.45v6.479h-7.45V301.811z"/>
	<path display="inline" fill="#FDFFFE" d="M-135.455,275.889h7.45v6.481h-7.45V275.889z"/>
	<path display="inline" fill="#FDFFFE" d="M-120.554,275.889h7.45v6.481h-7.45V275.889z"/>
	<path display="inline" fill="#FDFFFE" d="M-105.653,301.811h7.45v6.479h-7.45V301.811z"/>
	<path display="inline" fill="#FDFFFE" d="M-90.752,301.811h7.451v6.479h-7.451V301.811z"/>
	<path display="inline" fill="#FDFFFE" d="M-75.851,233.769c0,5.359,5.014,9.72,11.175,9.72c6.161,0,11.176-4.361,11.176-9.72
		s-5.015-9.72-11.176-9.72C-70.837,224.049-75.851,228.41-75.851,233.769z M-60.95,233.769c0,1.789-1.669,3.241-3.726,3.241
		c-2.057,0-3.726-1.452-3.726-3.241c0-1.788,1.669-3.239,3.726-3.239C-62.619,230.53-60.95,231.981-60.95,233.769z"/>
	<path display="inline" fill="#FDFFFE" d="M-46.24,217.734c-4.92-4.284-11.47-6.646-18.436-6.646
		c-6.966,0-13.515,2.362-18.436,6.646l5.267,4.582c3.516-3.059,8.195-4.747,13.168-4.747c4.973,0,9.652,1.688,13.169,4.747
		L-46.24,217.734z"/>
	<path display="inline" fill="#FDFFFE" d="M-35.701,208.568c-15.978-13.896-41.976-13.896-57.953,0l5.267,4.582
		c13.075-11.373,34.344-11.373,47.419,0L-35.701,208.568z"/>
	<path display="inline" fill="#FDFFFE" d="M-64.676,191.649c12.938,0,25.097,4.383,34.242,12.338l5.268-4.582
		c-10.554-9.179-24.581-14.236-39.51-14.236c-14.927,0-28.956,5.058-39.51,14.236l5.267,4.582
		C-89.773,196.032-77.614,191.649-64.676,191.649L-64.676,191.649z"/>
	<path display="inline" fill="#FDFFFE" d="M-16.248,237.01h7.45v6.479h-7.45V237.01z"/>
	<path display="inline" fill="#FDFFFE" d="M-1.347,237.01h7.45v6.479h-7.45V237.01z"/>
	<path display="inline" fill="#FDFFFE" d="M13.554,237.01h7.451v6.479h-7.451V237.01z"/>
</g>
<path display="none" fill="#FFFFFF" d="M162.248,262.723c0-27.188,22.119-49.307,49.307-49.307h98.613
	c12.686,0,23.011-10.322,23.011-23.01c0-12.688-10.325-23.01-23.011-23.01h-55.881v6.574h55.881c9.063,0,16.436,7.373,16.436,16.436
	c0,9.063-7.373,16.436-16.436,16.436h-98.613c-30.813,0-55.881,25.067-55.881,55.881c0,30.814,25.067,55.882,55.881,55.882h95.326
	v-6.574h-95.326C184.367,312.029,162.248,289.91,162.248,262.723z"/>
<path display="none" fill="#FFFFFF" d="M211.555,239.714h98.613c27.188,0,49.307-22.12,49.307-49.308
	c0-27.188-22.119-49.307-49.307-49.307h-55.881v6.574h55.881c23.563,0,42.732,19.17,42.732,42.732s-19.172,42.732-42.732,42.732
	h-98.613c-16.314,0-29.584,13.272-29.584,29.583s13.27,29.586,29.584,29.586h95.326v-6.576h-95.326
	c-12.685,0-23.01-10.32-23.01-23.01C188.545,250.032,198.87,239.714,211.555,239.714z"/>
<path display="none" fill="#FFFFFF" d="M297.02,298.881h9.861v6.574h-9.861V298.881z"/>
<path display="none" fill="#FFFFFF" d="M270.723,298.881h13.149v6.574h-13.149V298.881z"/>
<path display="none" fill="#FFFFFF" d="M244.425,298.881h13.149v6.574h-13.149V298.881z"/>
<path display="none" fill="#FFFFFF" d="M218.129,298.881h13.148v6.574h-13.148V298.881z"/>
<path display="none" fill="#FFFFFF" d="M193.479,294.046l-3.293,5.69c4.427,2.557,9.22,4.281,14.253,5.127l1.084-6.485
	C201.273,297.668,197.22,296.209,193.479,294.046z"/>
<path display="none" fill="#FFFFFF" d="M176.843,287.652l5.334-3.84c-2.626-3.652-4.526-7.705-5.644-12.051l-6.368,1.644
	C171.491,278.54,173.736,283.337,176.843,287.652L176.843,287.652z"/>
<path display="none" fill="#FFFFFF" d="M168.967,259.163l6.554,0.542c0.342-4.188,1.407-8.243,3.152-12.051l-5.976-2.74
	C170.633,249.42,169.378,254.213,168.967,259.163z"/>
<path display="none" fill="#FFFFFF" d="M187.641,235.604c3.494-3.086,7.485-5.434,11.86-6.981l-2.189-6.2
	c-5.174,1.831-9.895,4.605-14.026,8.254L187.641,235.604z"/>
<path display="none" fill="#FFFFFF" d="M211.555,219.99h13.148v6.574h-13.148V219.99z"/>
<path display="none" fill="#FFFFFF" d="M237.852,219.99H251v6.574h-13.148V219.99z"/>
<path display="none" fill="#FFFFFF" d="M264.148,219.99h13.147v6.574h-13.147V219.99z"/>
<path display="none" fill="#FFFFFF" d="M290.445,219.99h13.147v6.574h-13.147V219.99z"/>
<path display="none" fill="#FFFFFF" d="M317.395,225.842c5.277-1.072,10.149-3.261,14.473-6.509l-3.947-5.256
	c-3.537,2.656-7.516,4.447-11.83,5.322L317.395,225.842z"/>
<path display="none" fill="#FFFFFF" d="M343.314,204.873c1.998-4.572,3.012-9.441,3.012-14.467h-6.574
	c0,4.116-0.828,8.096-2.459,11.833L343.314,204.873z"/>
<path display="none" fill="#FFFFFF" d="M331.87,161.479l-3.951,5.256c4.089,3.073,7.33,7.169,9.374,11.84l6.021-2.633
	C340.82,170.233,336.863,165.234,331.87,161.479L331.87,161.479z"/>
<path display="none" fill="#FFFFFF" d="M316.089,161.414l1.308-6.443c-2.365-0.479-4.795-0.723-7.229-0.723h-6.574v6.575h6.574
	C312.16,160.822,314.154,161.023,316.089,161.414z"/>
<path display="none" fill="#FFFFFF" d="M277.297,154.248h13.148v6.575h-13.148V154.248z"/>
<path display="none" fill="#FFFFFF" d="M254.287,154.248h9.861v6.575h-9.861V154.248L254.287,154.248z"/>
<path display="none" fill="#FFFFFF" d="M158.961,173.971h10.329c1.469,5.653,6.571,9.861,12.681,9.861
	c6.111,0,11.212-4.208,12.682-9.861h14.082c1.469,5.653,6.571,9.861,12.682,9.861c6.11,0,11.211-4.208,12.681-9.861h10.328
	c1.818,0,3.288-1.473,3.288-3.287v-13.148c0-1.815-1.469-3.288-3.288-3.288h-3.287v-6.574c0-0.46-0.095-0.914-0.282-1.334
	l-13.149-29.584c-0.529-1.187-1.703-1.953-3.004-1.953h-32.871c-1.818,0-3.288,1.473-3.288,3.287v26.297h-29.584
	c-1.817,0-3.287,1.473-3.287,3.287v23.01C155.674,172.498,157.144,173.971,158.961,173.971z M181.971,177.258
	c-3.626,0-6.574-2.949-6.574-6.575s2.948-6.574,6.574-6.574c3.626,0,6.574,2.948,6.574,6.574S185.597,177.258,181.971,177.258z
	 M221.417,177.258c-3.626,0-6.575-2.949-6.575-6.575s2.949-6.574,6.575-6.574c3.625,0,6.574,2.948,6.574,6.574
	C227.99,174.309,225.042,177.258,221.417,177.258z M162.248,150.961h29.584c1.817,0,3.287-1.473,3.287-3.288v-26.297h27.451
	l11.995,26.994v9.165c0,1.814,1.47,3.287,3.287,3.287h3.287v6.574h-7.041c-1.47-5.654-6.571-9.861-12.681-9.861
	c-6.111,0-11.213,4.208-12.682,9.861h-14.082c-1.469-5.654-6.571-9.861-12.682-9.861c-6.11,0-11.212,4.208-12.681,9.861h-7.042
	V150.961z"/>
<path display="none" fill="#FFFFFF" d="M204.98,150.961h19.723c1.091,0,2.11-0.543,2.722-1.444c0.611-0.903,0.736-2.051,0.332-3.063
	l-6.574-16.436c-0.503-1.249-1.71-2.067-3.054-2.067H204.98c-1.818,0-3.287,1.473-3.287,3.287v16.436
	C201.693,149.489,203.163,150.961,204.98,150.961z M208.268,134.525h7.636l3.944,9.861h-11.58V134.525z"/>
<path display="none" fill="#FFFFFF" d="M356.188,259.436h-29.584v-6.574h-6.574v9.861v19.723v17.042
	c-3.815,1.359-6.573,4.977-6.573,9.256c0,5.438,4.424,9.86,9.86,9.86c5.438,0,9.862-4.424,9.862-9.86
	c0-4.279-2.759-7.896-6.575-9.256v-13.755h29.584c1.818,0,3.287-1.473,3.287-3.287v-19.723
	C359.475,260.908,358.006,259.436,356.188,259.436z M323.316,312.029c-1.814,0-3.287-1.477-3.287-3.287
	c0-1.812,1.473-3.287,3.287-3.287c1.813,0,3.287,1.477,3.287,3.287C326.604,310.554,325.131,312.029,323.316,312.029z
	 M352.9,279.158h-26.297V266.01H352.9V279.158z"/>
<path fill="#FFFFFD" d="M213.762,235.116v-3.764c0-5.904,3.484-11.273,8.875-13.682l12.552-5.604c1.393-0.621,2.099-0.48,6.611-0.48
	c2.544,0,4.759,1.736,5.367,4.208c1.074,4.361,7.321,4.362,8.395,0c0.608-2.471,2.823-4.208,5.367-4.208
	c4.651,0,5.257-0.125,6.611,0.48l12.553,5.604c5.392,2.407,8.875,7.778,8.875,13.682v3.764h48.022v-79.981
	c0-9.145-7.438-16.583-16.584-16.583H182.21c-9.145,0-16.583,7.438-16.583,16.583v79.981H213.762z M251.454,157.487
	c13.374,0,24.253,10.88,24.253,24.253c0,13.374-10.879,24.253-24.253,24.253c-13.372,0-24.252-10.879-24.252-24.253
	C227.202,168.368,238.082,157.487,251.454,157.487z M336.99,246.172v2.938c0,9.145-7.438,16.583-16.584,16.583h-45.863l4.277,17.966
	h12.91c3.055,0,5.528,2.474,5.528,5.527c0,3.055-2.474,5.527-5.528,5.527h-80.845c-3.054,0-5.527-2.473-5.527-5.527
	c0-3.054,2.474-5.527,5.527-5.527h12.912l4.277-17.966H182.21c-9.145,0-16.583-7.438-16.583-16.583v-2.938H336.99z"/>
</svg>
