<?xml version="1.0" encoding="utf-8"?>
<!-- Generator: Adobe Illustrator 16.0.0, SVG Export Plug-In . SVG Version: 6.00 Build 0)  -->
<!DOCTYPE svg PUBLIC "-//W3C//DTD SVG 1.1//EN" "http://www.w3.org/Graphics/SVG/1.1/DTD/svg11.dtd">
<svg version="1.1" id="Layer_3" xmlns="http://www.w3.org/2000/svg" xmlns:xlink="http://www.w3.org/1999/xlink" x="0px" y="0px"
	 width="512px" height="512px" viewBox="0 0 512 512" enable-background="new 0 0 512 512" xml:space="preserve">
<g>
	<g>
		<path fill="#164251" d="M251.309,21.686c-91.693,0-166.29,74.597-166.29,166.288c0,113.792,148.812,280.847,155.148,287.904
			c5.952,6.627,16.342,6.617,22.282,0c6.336-7.057,155.148-174.111,155.148-287.904C417.598,96.283,343,21.686,251.309,21.686z"/>
	</g>
</g>
<path display="none" fill="#FFFFFF" d="M353.678,92.439H145.05c-1.919,0-3.477,1.557-3.477,3.476V200.23
	c0,1.918,1.557,3.479,3.477,3.479h208.628c1.918,0,3.479-1.561,3.479-3.479V95.916C357.155,93.996,355.596,92.439,353.678,92.439z
	 M350.201,196.753H148.526V99.392h201.675V196.753z"/>
<path display="none" fill="#FFFFFF" d="M298.046,273.25c1.917,0,3.476-1.559,3.476-3.477V214.14c0-1.92-1.559-3.48-3.476-3.48
	h-97.362c-1.917,0-3.475,1.561-3.475,3.48v55.633c0,1.92,1.558,3.478,3.475,3.478h38.248v13.909h-17.385v6.953h55.633v-6.953
	h-17.385v-13.91H298.046z M204.161,217.616h90.405v48.678h-90.405V217.616L204.161,217.616z M252.841,287.159h-6.954V273.25h6.954
	V287.159z"/>
<path display="none" fill="#FFFFFF" d="M249.364,182.843c14.161,0,25.858-10.639,27.579-24.338h14.146v-6.955h-14.146
	c-1.721-13.699-13.418-24.34-27.579-24.34c-14.16,0-25.856,10.642-27.576,24.34h-14.149v6.955h14.149
	C223.508,172.204,235.204,182.843,249.364,182.843z M249.364,175.891c-10.316,0-18.884-7.535-20.549-17.386h41.097
	C268.248,168.356,259.682,175.891,249.364,175.891z M249.364,134.165c10.317,0,18.884,7.534,20.548,17.385h-41.097
	C230.48,141.699,239.048,134.165,249.364,134.165z"/>
<path display="none" fill="#FFFFFF" d="M332.816,127.209c5.75,0,10.431-4.679,10.431-10.43c0-5.753-4.681-10.433-10.431-10.433
	c-5.756,0-10.437,4.68-10.437,10.433C322.381,122.53,327.063,127.209,332.816,127.209z M332.816,113.3
	c1.912,0,3.478,1.563,3.478,3.479c0,1.915-1.563,3.477-3.478,3.477c-1.92,0-3.477-1.562-3.477-3.477
	C329.341,114.863,330.896,113.3,332.816,113.3z"/>
<path display="none" fill="#FFFFFF" d="M165.913,127.209c5.751,0,10.431-4.679,10.431-10.43c0-5.753-4.68-10.433-10.431-10.433
	c-5.752,0-10.432,4.68-10.432,10.433C155.481,122.53,160.161,127.209,165.913,127.209z M165.913,113.3
	c1.916,0,3.478,1.563,3.478,3.479c0,1.915-1.562,3.477-3.478,3.477s-3.478-1.562-3.478-3.477
	C162.436,114.863,163.997,113.3,165.913,113.3z"/>
<path display="none" fill="#FFFFFF" d="M165.913,155.027c5.751,0,10.431-4.68,10.431-10.432c0-5.752-4.68-10.43-10.431-10.43
	c-5.752,0-10.432,4.678-10.432,10.43C155.481,150.347,160.161,155.027,165.913,155.027z M165.913,141.119
	c1.916,0,3.478,1.56,3.478,3.476c0,1.917-1.562,3.478-3.478,3.478s-3.478-1.561-3.478-3.478
	C162.436,142.679,163.997,141.119,165.913,141.119z"/>
<path display="none" fill="#FFFFFF" d="M190.253,141.119c5.751,0,10.431-4.68,10.431-10.432s-4.679-10.432-10.431-10.432
	s-10.432,4.68-10.432,10.432S184.502,141.119,190.253,141.119z M190.253,127.209c1.916,0,3.477,1.562,3.477,3.478
	s-1.561,3.478-3.477,3.478c-1.917,0-3.477-1.562-3.477-3.478S188.337,127.209,190.253,127.209z"/>
<path display="none" fill="#FFFFFF" d="M280.659,224.569h6.952v6.953h-6.952V224.569z"/>
<path display="none" fill="#FFFFFF" d="M280.659,238.479h6.952v6.953h-6.952V238.479z"/>
<path display="none" fill="#FFFFFF" d="M280.659,252.388h6.952v6.954h-6.952V252.388z"/>
<path display="none" fill="#FFFFFF" d="M270.229,224.569h-55.635c-1.919,0-3.477,1.56-3.477,3.476v27.817
	c0,1.921,1.558,3.48,3.477,3.48h55.635c1.918,0,3.478-1.559,3.478-3.48v-27.817C273.705,226.129,272.146,224.569,270.229,224.569z
	 M266.751,252.388H218.07v-20.865h48.681V252.388z"/>
<path display="none" fill="#FFFFFF" d="M141.573,301.067h215.582v6.954H141.573V301.067z"/>
<path display="none" fill="#FFFFFF" d="M353.678,252.388h-41.727c-1.919,0-3.477,1.558-3.477,3.474v34.772
	c0,1.921,1.558,3.479,3.477,3.479h41.727c1.918,0,3.479-1.559,3.479-3.479v-34.772C357.155,253.946,355.596,252.388,353.678,252.388
	z M350.201,259.342v6.952H315.43v-6.952H350.201z M315.43,287.159V273.25h34.771v13.909H315.43z"/>
<path display="none" fill="#FFFFFF" d="M145.05,294.113h41.727c1.919,0,3.477-1.559,3.477-3.479v-34.772
	c0-1.916-1.558-3.474-3.477-3.474H145.05c-1.919,0-3.477,1.558-3.477,3.474v34.772C141.573,292.555,143.13,294.113,145.05,294.113z
	 M148.526,287.159V273.25H183.3v13.909H148.526z M183.3,259.342v6.952h-34.773v-6.952H183.3z"/>
<g id="Solid" display="none">
	<path display="inline" fill="#FFFFFF" d="M398.299,205.972v-24.383h-63.543c-8.849-24.989-28.506-44.648-53.496-53.496V64.551
		h-24.384v19.506h-9.753V64.551h-24.382v63.542c-24.99,8.848-44.648,28.507-53.497,53.496h-63.542v24.383h19.506v9.754h-19.506
		v24.383h63.542c8.848,24.989,28.506,44.647,53.497,53.497v63.541h24.382v-19.506h9.753v19.506h24.384v-63.541
		c24.99-8.85,44.647-28.508,53.496-53.497h63.543v-24.383h-19.508v-9.754H398.299L398.299,205.972z M164.222,215.726h-19.507v-9.754
		h19.507V215.726z M189.931,223.558l-0.161-0.615c-0.772-3.984-1.163-8.033-1.165-12.093c0-4.215,0.425-8.418,1.268-12.548
		l9.553,1.951c-1.4,6.872-1.432,13.954-0.092,20.837l-4.877,0.977L189.931,223.558z M216.582,263.395
		c-6.901-4.641-12.822-10.592-17.425-17.517l8.124-5.404c3.894,5.867,8.905,10.907,14.747,14.834L216.582,263.395z M207.511,180.932
		l-8.095-5.448c4.636-6.902,10.584-12.827,17.507-17.433l5.408,8.114C216.468,170.065,211.432,175.083,207.511,180.932z
		 M247.123,103.564h9.753v19.506h-9.753V103.564z M239.906,148.619c8.125-1.587,16.486-1.563,24.601,0.074l-1.948,9.563
		c-6.767-1.36-13.729-1.401-20.512-0.122l-0.736,0.131l-0.604-4.875l-1.434-4.609L239.906,148.619z M256.876,318.135h-9.753v-19.508
		h9.753V318.135z M252,274.244c-4.232,0-8.455-0.428-12.601-1.277l1.951-9.553c6.9,1.4,14.009,1.428,20.919,0.084l2.06,9.529
		C260.268,273.83,256.139,274.238,252,274.244z M252,240.109c-16.16,0-29.259-13.1-29.259-29.26c0-16.16,13.1-29.26,29.259-29.26
		c16.16,0,29.26,13.1,29.26,29.26C281.26,227.009,268.16,240.109,252,240.109z M287.32,158.235
		c6.914,4.628,12.846,10.575,17.453,17.503l-8.114,5.407c-3.905-5.855-8.927-10.888-14.776-14.805L287.32,158.235z M287.18,263.57
		l-5.433-8.09c5.853-3.913,10.878-8.94,14.786-14.796l8.135,5.428c-4.622,6.919-10.564,12.855-17.488,17.472V263.57z
		 M314.167,223.289l-9.563-1.951c0.692-3.445,1.041-6.951,1.039-10.465c0.004-3.445-0.322-6.881-0.975-10.264l9.553-1.951
		l0.045,0.233c1.563,8.069,1.533,16.365-0.088,24.423L314.167,223.289z M359.285,215.726h-19.508v-9.754h19.508V215.726z"/>
</g>
<g display="none">
	<path display="inline" fill="#FDFFFE" d="M35.905,366.939V256.45h9.012l-21.286-51.841h-47.328v6.48h42.075l15.966,38.88h-198.04
		l15.967-38.88h42.076v-6.48h-47.329l-21.287,51.841h9.011v110.49c-8.489,1.506-14.9,8.049-14.9,15.87v3.24H50.807v-3.24
		C50.807,374.988,44.395,368.445,35.905,366.939L35.905,366.939z M28.455,256.45v110.162h-7.45V272.65
		c0-5.358-5.014-9.721-11.177-9.721h-59.603c-6.162,0-11.176,4.361-11.176,9.721v93.962h-7.451V272.65
		c0-5.358-5.014-9.721-11.175-9.721h-59.604c-6.161,0-11.175,4.361-11.175,9.721v93.962h-7.452V256.45H28.455z M-1.347,340.691
		H-38.6v-6.48h37.253V340.691z M-38.6,347.17h37.253v6.48H-38.6V347.17z M-38.6,360.131h37.253v6.48H-38.6V360.131z M-46.051,327.73
		v38.881H-53.5V321.25h67.054v45.361h-7.45V327.73H-46.051z M13.554,288.85H-53.5V272.65c0-1.789,1.669-3.239,3.726-3.239H9.828
		c2.056,0,3.726,1.45,3.726,3.239V288.85z M-53.5,295.33h67.054v19.438H-53.5V295.33z M-90.752,340.691h-37.252v-6.48h37.252
		V340.691z M-128.005,347.17h37.252v6.48h-37.252V347.17z M-128.005,360.131h37.252v6.48h-37.252V360.131z M-135.455,327.73v38.881
		h-7.45V321.25h67.054v45.361h-7.451V327.73H-135.455z M-75.851,288.85h-67.054V272.65c0-1.789,1.669-3.239,3.725-3.239h59.604
		c2.056,0,3.726,1.45,3.726,3.239L-75.851,288.85L-75.851,288.85z M-142.905,295.33h67.054v19.438h-67.054V295.33z M-172.07,379.572
		c1.538-3.771,5.681-6.482,10.539-6.482H32.18c4.857,0,8.999,2.711,10.539,6.482H-172.07z"/>
	<path display="inline" fill="#FDFFFE" d="M-46.051,275.889h7.451v6.481h-7.451V275.889z"/>
	<path display="inline" fill="#FDFFFE" d="M-31.148,275.889h7.451v6.481h-7.451V275.889z"/>
	<path display="inline" fill="#FDFFFE" d="M-1.347,301.811h7.45v6.479h-7.45V301.811z"/>
	<path display="inline" fill="#FDFFFE" d="M-16.248,301.811h7.45v6.479h-7.45V301.811z"/>
	<path display="inline" fill="#FDFFFE" d="M-135.455,275.889h7.45v6.481h-7.45V275.889z"/>
	<path display="inline" fill="#FDFFFE" d="M-120.554,275.889h7.45v6.481h-7.45V275.889z"/>
	<path display="inline" fill="#FDFFFE" d="M-105.653,301.811h7.45v6.479h-7.45V301.811z"/>
	<path display="inline" fill="#FDFFFE" d="M-90.752,301.811h7.451v6.479h-7.451V301.811z"/>
	<path display="inline" fill="#FDFFFE" d="M-75.851,233.769c0,5.359,5.014,9.72,11.175,9.72c6.161,0,11.176-4.361,11.176-9.72
		s-5.015-9.72-11.176-9.72C-70.837,224.049-75.851,228.41-75.851,233.769z M-60.95,233.769c0,1.789-1.669,3.241-3.726,3.241
		c-2.057,0-3.726-1.452-3.726-3.241c0-1.788,1.669-3.239,3.726-3.239C-62.619,230.53-60.95,231.981-60.95,233.769z"/>
	<path display="inline" fill="#FDFFFE" d="M-46.24,217.734c-4.92-4.284-11.47-6.646-18.436-6.646
		c-6.966,0-13.515,2.362-18.436,6.646l5.267,4.582c3.516-3.059,8.195-4.747,13.168-4.747c4.973,0,9.652,1.688,13.169,4.747
		L-46.24,217.734z"/>
	<path display="inline" fill="#FDFFFE" d="M-35.701,208.568c-15.978-13.896-41.976-13.896-57.953,0l5.267,4.582
		c13.075-11.373,34.344-11.373,47.419,0L-35.701,208.568z"/>
	<path display="inline" fill="#FDFFFE" d="M-64.676,191.649c12.938,0,25.097,4.383,34.242,12.338l5.268-4.582
		c-10.554-9.179-24.581-14.236-39.51-14.236c-14.927,0-28.956,5.058-39.51,14.236l5.267,4.582
		C-89.773,196.032-77.614,191.649-64.676,191.649L-64.676,191.649z"/>
	<path display="inline" fill="#FDFFFE" d="M-16.248,237.01h7.45v6.479h-7.45V237.01z"/>
	<path display="inline" fill="#FDFFFE" d="M-1.347,237.01h7.45v6.479h-7.45V237.01z"/>
	<path display="inline" fill="#FDFFFE" d="M13.554,237.01h7.451v6.479h-7.451V237.01z"/>
</g>
<path display="none" fill="#FFFFFF" d="M162.248,262.723c0-27.188,22.119-49.307,49.307-49.307h98.613
	c12.686,0,23.011-10.322,23.011-23.01c0-12.688-10.325-23.01-23.011-23.01h-55.881v6.574h55.881c9.063,0,16.436,7.373,16.436,16.436
	c0,9.063-7.373,16.436-16.436,16.436h-98.613c-30.813,0-55.881,25.067-55.881,55.881c0,30.814,25.067,55.882,55.881,55.882h95.326
	v-6.574h-95.326C184.367,312.029,162.248,289.91,162.248,262.723z"/>
<path display="none" fill="#FFFFFF" d="M211.555,239.714h98.613c27.188,0,49.307-22.12,49.307-49.308
	c0-27.188-22.119-49.307-49.307-49.307h-55.881v6.574h55.881c23.563,0,42.732,19.17,42.732,42.732s-19.172,42.732-42.732,42.732
	h-98.613c-16.314,0-29.584,13.272-29.584,29.583s13.27,29.586,29.584,29.586h95.326v-6.576h-95.326
	c-12.685,0-23.01-10.32-23.01-23.01C188.545,250.032,198.87,239.714,211.555,239.714z"/>
<path display="none" fill="#FFFFFF" d="M297.02,298.881h9.861v6.574h-9.861V298.881z"/>
<path display="none" fill="#FFFFFF" d="M270.723,298.881h13.149v6.574h-13.149V298.881z"/>
<path display="none" fill="#FFFFFF" d="M244.425,298.881h13.149v6.574h-13.149V298.881z"/>
<path display="none" fill="#FFFFFF" d="M218.129,298.881h13.148v6.574h-13.148V298.881z"/>
<path display="none" fill="#FFFFFF" d="M193.479,294.046l-3.293,5.69c4.427,2.557,9.22,4.281,14.253,5.127l1.084-6.485
	C201.273,297.668,197.22,296.209,193.479,294.046z"/>
<path display="none" fill="#FFFFFF" d="M176.843,287.652l5.334-3.84c-2.626-3.652-4.526-7.705-5.644-12.051l-6.368,1.644
	C171.491,278.54,173.736,283.337,176.843,287.652L176.843,287.652z"/>
<path display="none" fill="#FFFFFF" d="M168.967,259.163l6.554,0.542c0.342-4.188,1.407-8.243,3.152-12.051l-5.976-2.74
	C170.633,249.42,169.378,254.213,168.967,259.163z"/>
<path display="none" fill="#FFFFFF" d="M187.641,235.604c3.494-3.086,7.485-5.434,11.86-6.981l-2.189-6.2
	c-5.174,1.831-9.895,4.605-14.026,8.254L187.641,235.604z"/>
<path display="none" fill="#FFFFFF" d="M211.555,219.99h13.148v6.574h-13.148V219.99z"/>
<path display="none" fill="#FFFFFF" d="M237.852,219.99H251v6.574h-13.148V219.99z"/>
<path display="none" fill="#FFFFFF" d="M264.148,219.99h13.147v6.574h-13.147V219.99z"/>
<path display="none" fill="#FFFFFF" d="M290.445,219.99h13.147v6.574h-13.147V219.99z"/>
<path display="none" fill="#FFFFFF" d="M317.395,225.842c5.277-1.072,10.149-3.261,14.473-6.509l-3.947-5.256
	c-3.537,2.656-7.516,4.447-11.83,5.322L317.395,225.842z"/>
<path display="none" fill="#FFFFFF" d="M343.314,204.873c1.998-4.572,3.012-9.441,3.012-14.467h-6.574
	c0,4.116-0.828,8.096-2.459,11.833L343.314,204.873z"/>
<path display="none" fill="#FFFFFF" d="M331.87,161.479l-3.951,5.256c4.089,3.073,7.33,7.169,9.374,11.84l6.021-2.633
	C340.82,170.233,336.863,165.234,331.87,161.479L331.87,161.479z"/>
<path display="none" fill="#FFFFFF" d="M316.089,161.414l1.308-6.443c-2.365-0.479-4.795-0.723-7.229-0.723h-6.574v6.575h6.574
	C312.16,160.822,314.154,161.023,316.089,161.414z"/>
<path display="none" fill="#FFFFFF" d="M277.297,154.248h13.148v6.575h-13.148V154.248z"/>
<path display="none" fill="#FFFFFF" d="M254.287,154.248h9.861v6.575h-9.861V154.248L254.287,154.248z"/>
<path display="none" fill="#FFFFFF" d="M158.961,173.971h10.329c1.469,5.653,6.571,9.861,12.681,9.861
	c6.111,0,11.212-4.208,12.682-9.861h14.082c1.469,5.653,6.571,9.861,12.682,9.861c6.11,0,11.211-4.208,12.681-9.861h10.328
	c1.818,0,3.288-1.473,3.288-3.287v-13.148c0-1.815-1.469-3.288-3.288-3.288h-3.287v-6.574c0-0.46-0.095-0.914-0.282-1.334
	l-13.149-29.584c-0.529-1.187-1.703-1.953-3.004-1.953h-32.871c-1.818,0-3.288,1.473-3.288,3.287v26.297h-29.584
	c-1.817,0-3.287,1.473-3.287,3.287v23.01C155.674,172.498,157.144,173.971,158.961,173.971z M181.971,177.258
	c-3.626,0-6.574-2.949-6.574-6.575s2.948-6.574,6.574-6.574c3.626,0,6.574,2.948,6.574,6.574S185.597,177.258,181.971,177.258z
	 M221.417,177.258c-3.626,0-6.575-2.949-6.575-6.575s2.949-6.574,6.575-6.574c3.625,0,6.574,2.948,6.574,6.574
	C227.99,174.309,225.042,177.258,221.417,177.258z M162.248,150.961h29.584c1.817,0,3.287-1.473,3.287-3.288v-26.297h27.451
	l11.995,26.994v9.165c0,1.814,1.47,3.287,3.287,3.287h3.287v6.574h-7.041c-1.47-5.654-6.571-9.861-12.681-9.861
	c-6.111,0-11.213,4.208-12.682,9.861h-14.082c-1.469-5.654-6.571-9.861-12.682-9.861c-6.11,0-11.212,4.208-12.681,9.861h-7.042
	V150.961z"/>
<path display="none" fill="#FFFFFF" d="M204.98,150.961h19.723c1.091,0,2.11-0.543,2.722-1.444c0.611-0.903,0.736-2.051,0.332-3.063
	l-6.574-16.436c-0.503-1.249-1.71-2.067-3.054-2.067H204.98c-1.818,0-3.287,1.473-3.287,3.287v16.436
	C201.693,149.489,203.163,150.961,204.98,150.961z M208.268,134.525h7.636l3.944,9.861h-11.58V134.525z"/>
<path display="none" fill="#FFFFFF" d="M356.188,259.436h-29.584v-6.574h-6.574v9.861v19.723v17.042
	c-3.815,1.359-6.573,4.977-6.573,9.256c0,5.438,4.424,9.86,9.86,9.86c5.438,0,9.862-4.424,9.862-9.86
	c0-4.279-2.759-7.896-6.575-9.256v-13.755h29.584c1.818,0,3.287-1.473,3.287-3.287v-19.723
	C359.475,260.908,358.006,259.436,356.188,259.436z M323.316,312.029c-1.814,0-3.287-1.477-3.287-3.287
	c0-1.812,1.473-3.287,3.287-3.287c1.813,0,3.287,1.477,3.287,3.287C326.604,310.554,325.131,312.029,323.316,312.029z
	 M352.9,279.158h-26.297V266.01H352.9V279.158z"/>
<g>
	<g>
		<path fill="#FFFFFF" d="M257.623,188.05c0.158,3.566,0.313,7.131,0.469,10.695c-3.026,0-4.539,0-7.565,0
			c0.155-3.564,0.313-7.129,0.468-10.695c-6.138,0-12.274,0-18.413,0c-12.337,42.97-24.677,85.938-37.015,128.909
			c16.593,0,33.187,0,49.781,0c0.155-3.565,0.312-7.13,0.468-10.695c5.662,0,11.325,0,16.987,0c0.156,3.565,0.313,7.13,0.47,10.695
			c16.592,0,33.186,0,49.779,0c-12.338-42.97-24.679-85.938-37.017-128.909C269.898,188.05,263.761,188.05,257.623,188.05z
			 M249.823,214.759c2.99,0,5.979-0.003,8.971-0.001c0.434,9.913,0.867,19.826,1.303,29.74c-3.858,0-7.717,0-11.576,0
			C248.957,234.585,249.39,224.671,249.823,214.759z M246.517,290.25c0.434-9.913,0.869-19.825,1.302-29.738
			c4.327,0,8.652-0.001,12.979-0.001c0.435,9.913,0.868,19.826,1.302,29.739C256.906,290.25,251.71,290.25,246.517,290.25z"/>
		<path fill="#FFFFFF" d="M288.104,188.05c-2.508,0-3.762,0-6.269,0c15.634,42.97,31.265,85.939,46.899,128.909
			c5.648,0,11.298,0,16.947,0C326.489,273.987,307.298,231.02,288.104,188.05z"/>
		<path fill="#FFFFFF" d="M220.513,188.05c-19.193,42.971-38.386,85.938-57.578,128.909c5.649,0,11.298,0,16.947,0
			c15.633-42.97,31.265-85.938,46.899-128.909C224.274,188.05,223.02,188.05,220.513,188.05z"/>
	</g>
</g>
<g>
	<path fill="#FFFFFF" d="M304.692,160.367h-7.314l-5.632-36.467h-71.494l-5.63,36.467h-7.314v34.134h6.274v12.764h17.068v-12.764
		h50.701v12.764h17.067v-12.764h6.274V160.367z M227.713,131.934h56.573l3.306,21.407h-63.184L227.713,131.934z M224.752,184.362
		c-4.021,0-7.279-3.259-7.279-7.278c0-4.021,3.258-7.278,7.279-7.278c4.02,0,7.278,3.258,7.278,7.278
		C232.03,181.103,228.771,184.362,224.752,184.362z M287.249,169.805c4.02,0,7.277,3.258,7.277,7.278
		c0,4.02-3.258,7.278-7.277,7.278c-4.021,0-7.278-3.259-7.278-7.278C279.971,173.063,283.228,169.805,287.249,169.805z"/>
</g>
</svg>
