<?xml version="1.0" encoding="utf-8"?>
<!-- Generator: Adobe Illustrator 16.0.0, SVG Export Plug-In . SVG Version: 6.00 Build 0)  -->
<!DOCTYPE svg PUBLIC "-//W3C//DTD SVG 1.1//EN" "http://www.w3.org/Graphics/SVG/1.1/DTD/svg11.dtd">
<svg version="1.1" id="Layer_3" xmlns="http://www.w3.org/2000/svg" xmlns:xlink="http://www.w3.org/1999/xlink" x="0px" y="0px"
	 width="512px" height="512px" viewBox="0 0 512 512" enable-background="new 0 0 512 512" xml:space="preserve">
<g>
	<g>
		<path fill="#44A060" d="M252.309,21.686c-91.693,0-166.29,74.597-166.29,166.288c0,113.792,148.812,280.847,155.148,287.904
			c5.952,6.627,16.342,6.617,22.282,0c6.336-7.057,155.149-174.111,155.149-287.904C418.597,96.283,344,21.686,252.309,21.686z"/>
	</g>
</g>
<path display="none" fill="#FFFFFF" d="M353.678,92.439H145.05c-1.919,0-3.477,1.557-3.477,3.476V200.23
	c0,1.918,1.557,3.479,3.477,3.479h208.628c1.918,0,3.478-1.561,3.478-3.479V95.916C357.155,93.996,355.596,92.439,353.678,92.439z
	 M350.201,196.753H148.526V99.392h201.675V196.753z"/>
<path display="none" fill="#FFFFFF" d="M298.046,273.25c1.917,0,3.475-1.558,3.475-3.477V214.14c0-1.92-1.558-3.48-3.475-3.48
	h-97.362c-1.917,0-3.475,1.561-3.475,3.48v55.634c0,1.919,1.558,3.477,3.475,3.477h38.248v13.909h-17.385v6.954h55.633v-6.954
	h-17.385V273.25H298.046z M204.161,217.616h90.405v48.678h-90.405V217.616z M252.841,287.159h-6.954V273.25h6.954V287.159z"/>
<path display="none" fill="#FFFFFF" d="M249.364,182.843c14.161,0,25.858-10.639,27.579-24.338h14.146v-6.955h-14.146
	c-1.721-13.699-13.418-24.34-27.579-24.34c-14.16,0-25.856,10.642-27.576,24.34h-14.149v6.955h14.149
	C223.508,172.204,235.204,182.843,249.364,182.843z M249.364,175.891c-10.316,0-18.884-7.535-20.549-17.386h41.097
	C268.248,168.356,259.682,175.891,249.364,175.891z M249.364,134.165c10.318,0,18.884,7.534,20.548,17.385h-41.097
	C230.48,141.699,239.048,134.165,249.364,134.165z"/>
<path display="none" fill="#FFFFFF" d="M332.817,127.209c5.749,0,10.43-4.679,10.43-10.43c0-5.753-4.681-10.433-10.43-10.433
	c-5.756,0-10.437,4.68-10.437,10.433C322.381,122.53,327.062,127.209,332.817,127.209z M332.817,113.3
	c1.912,0,3.477,1.563,3.477,3.479c0,1.915-1.564,3.477-3.477,3.477c-1.92,0-3.477-1.562-3.477-3.477
	C329.341,114.863,330.897,113.3,332.817,113.3z"/>
<path display="none" fill="#FFFFFF" d="M165.913,127.209c5.751,0,10.431-4.679,10.431-10.43c0-5.753-4.68-10.433-10.431-10.433
	c-5.752,0-10.432,4.68-10.432,10.433C155.481,122.53,160.161,127.209,165.913,127.209z M165.913,113.3
	c1.916,0,3.478,1.563,3.478,3.479c0,1.915-1.562,3.477-3.478,3.477c-1.916,0-3.478-1.562-3.478-3.477
	C162.436,114.863,163.997,113.3,165.913,113.3z"/>
<path display="none" fill="#FFFFFF" d="M165.913,155.027c5.751,0,10.431-4.68,10.431-10.432s-4.68-10.43-10.431-10.43
	c-5.752,0-10.432,4.678-10.432,10.43S160.161,155.027,165.913,155.027z M165.913,141.119c1.916,0,3.478,1.56,3.478,3.476
	c0,1.917-1.562,3.478-3.478,3.478c-1.916,0-3.478-1.561-3.478-3.478C162.436,142.679,163.997,141.119,165.913,141.119z"/>
<path display="none" fill="#FFFFFF" d="M190.253,141.119c5.751,0,10.431-4.68,10.431-10.432s-4.679-10.432-10.431-10.432
	s-10.432,4.68-10.432,10.432S184.502,141.119,190.253,141.119z M190.253,127.209c1.916,0,3.477,1.562,3.477,3.478
	c0,1.916-1.561,3.478-3.477,3.478c-1.917,0-3.477-1.562-3.477-3.478C186.776,128.771,188.337,127.209,190.253,127.209z"/>
<path display="none" fill="#FFFFFF" d="M280.659,224.569h6.952v6.953h-6.952V224.569z"/>
<path display="none" fill="#FFFFFF" d="M280.659,238.479h6.952v6.953h-6.952V238.479z"/>
<path display="none" fill="#FFFFFF" d="M280.659,252.388h6.952v6.954h-6.952V252.388z"/>
<path display="none" fill="#FFFFFF" d="M270.228,224.569h-55.634c-1.919,0-3.477,1.56-3.477,3.476v27.817
	c0,1.921,1.558,3.48,3.477,3.48h55.634c1.918,0,3.478-1.559,3.478-3.48v-27.817C273.705,226.129,272.146,224.569,270.228,224.569z
	 M266.751,252.388H218.07v-20.865h48.681V252.388z"/>
<path display="none" fill="#FFFFFF" d="M141.573,301.067h215.582v6.954H141.573V301.067z"/>
<path display="none" fill="#FFFFFF" d="M353.678,252.388h-41.727c-1.919,0-3.476,1.558-3.476,3.474v34.772
	c0,1.921,1.557,3.479,3.476,3.479h41.727c1.918,0,3.478-1.559,3.478-3.479v-34.772C357.155,253.946,355.596,252.388,353.678,252.388
	z M350.201,259.342v6.952H315.43v-6.952H350.201z M315.43,287.159V273.25h34.771v13.909H315.43z"/>
<path display="none" fill="#FFFFFF" d="M145.05,294.113h41.727c1.919,0,3.477-1.559,3.477-3.479v-34.772
	c0-1.916-1.558-3.474-3.477-3.474H145.05c-1.919,0-3.477,1.558-3.477,3.474v34.772C141.573,292.555,143.13,294.113,145.05,294.113z
	 M148.526,287.159V273.25H183.3v13.909H148.526z M183.3,259.342v6.952h-34.773v-6.952H183.3z"/>
<g id="Solid">
	<path fill="#FFFFFF" d="M398.299,205.972v-24.383h-63.543c-8.849-24.989-28.506-44.648-53.496-53.496V64.551h-24.384v19.506h-9.753
		V64.551h-24.382v63.542c-24.99,8.848-44.648,28.507-53.497,53.496h-63.542v24.383h19.506v9.754h-19.506v24.383h63.542
		c8.848,24.989,28.506,44.647,53.497,53.497v63.541h24.382v-19.506h9.753v19.506h24.384v-63.541
		c24.99-8.85,44.647-28.508,53.496-53.497h63.543v-24.383h-19.508v-9.754H398.299z M164.222,215.726h-19.507v-9.754h19.507V215.726z
		 M189.931,223.558l-0.161-0.615c-0.772-3.984-1.163-8.033-1.165-12.093c0-4.215,0.425-8.418,1.268-12.548l9.553,1.951
		c-1.4,6.872-1.432,13.954-0.092,20.837l-4.877,0.977L189.931,223.558z M216.582,263.395c-6.901-4.641-12.822-10.592-17.425-17.517
		l8.124-5.404c3.894,5.867,8.905,10.907,14.747,14.834L216.582,263.395z M207.511,180.932l-8.095-5.448
		c4.636-6.902,10.584-12.827,17.507-17.433l5.408,8.114C216.468,170.065,211.432,175.083,207.511,180.932z M247.123,103.564h9.753
		v19.506h-9.753V103.564z M239.906,148.619c8.125-1.587,16.486-1.563,24.601,0.074l-1.949,9.563
		c-6.766-1.36-13.729-1.401-20.511-0.122l-0.736,0.131l-0.604-4.875l-1.434-4.609L239.906,148.619z M256.876,318.135h-9.753v-19.508
		h9.753V318.135z M252,274.244c-4.232,0-8.455-0.428-12.601-1.277l1.951-9.553c6.9,1.4,14.009,1.428,20.92,0.084l2.059,9.529
		C260.268,273.83,256.139,274.238,252,274.244z M252,240.109c-16.16,0-29.259-13.1-29.259-29.26s13.1-29.26,29.259-29.26
		c16.16,0,29.26,13.1,29.26,29.26S268.16,240.109,252,240.109z M287.32,158.235c6.915,4.628,12.846,10.575,17.454,17.503
		l-8.115,5.407c-3.905-5.855-8.927-10.888-14.776-14.805L287.32,158.235z M287.18,263.57l-5.433-8.09
		c5.853-3.913,10.878-8.94,14.786-14.796l8.135,5.428c-4.622,6.919-10.565,12.855-17.488,17.472V263.57z M314.167,223.289
		l-9.563-1.951c0.692-3.445,1.04-6.951,1.039-10.465c0.004-3.445-0.323-6.881-0.975-10.264l9.552-1.951l0.046,0.233
		c1.563,8.069,1.533,16.365-0.088,24.423L314.167,223.289z M359.285,215.726h-19.507v-9.754h19.507V215.726z"/>
</g>
</svg>
